<?xml version="1.0" encoding="UTF-8" standalone="no"?>
<!-- Created with Inkscape (http://www.inkscape.org/) -->

<svg
   width="48"
   height="48"
   viewBox="0 0 48 48"
   version="1.1"
   id="svg1"
   inkscape:version="1.4.3 (0d15f75042, 2025-12-25)"
   sodipodi:docname="tmt_logo.svg"
   xmlns:inkscape="http://www.inkscape.org/namespaces/inkscape"
   xmlns:sodipodi="http://sodipodi.sourceforge.net/DTD/sodipodi-0.dtd"
   xmlns:xlink="http://www.w3.org/1999/xlink"
   xmlns="http://www.w3.org/2000/svg"
   xmlns:svg="http://www.w3.org/2000/svg">
  <sodipodi:namedview
     id="namedview1"
     pagecolor="#ffffff"
     bordercolor="#666666"
     borderopacity="1.0"
     inkscape:showpageshadow="2"
     inkscape:pageopacity="0.0"
     inkscape:pagecheckerboard="0"
     inkscape:deskcolor="#d1d1d1"
     inkscape:document-units="px"
     inkscape:zoom="6.5"
     inkscape:cx="28.461538"
     inkscape:cy="24.461538"
     inkscape:window-width="1346"
     inkscape:window-height="778"
     inkscape:window-x="39"
     inkscape:window-y="0"
     inkscape:window-maximized="0"
     inkscape:current-layer="g42" />
  <defs
     id="defs1">
    <linearGradient
       id="linearGradient39"
       inkscape:collect="always">
      <stop
         style="stop-color:#fafaf3;stop-opacity:0.85826993;"
         offset="0.06393857"
         id="stop40" />
      <stop
         style="stop-color:#e7e7e4;stop-opacity:1;"
         offset="0.64589602"
         id="stop39" />
    </linearGradient>
    <linearGradient
       id="linearGradient37"
       inkscape:collect="always">
      <stop
         style="stop-color:#0000d2;stop-opacity:1;"
         offset="0.59647059"
         id="stop37" />
      <stop
         style="stop-color:#000039;stop-opacity:0.90163493;"
         offset="0.9367823"
         id="stop38" />
    </linearGradient>
    <linearGradient
       inkscape:collect="always"
       xlink:href="#linearGradient37"
       id="linearGradient38"
       x1="23.994726"
       y1="2.081044"
       x2="23.994726"
       y2="49.814701"
       gradientUnits="userSpaceOnUse" />
    <linearGradient
       inkscape:collect="always"
       xlink:href="#linearGradient39"
       id="linearGradient40"
       x1="23.994728"
       y1="29.736767"
       x2="23.994728"
       y2="-17.296871"
       gradientUnits="userSpaceOnUse" />
  </defs>
  <g
     inkscape:groupmode="layer"
     id="layer2"
     inkscape:label="cover" />
  <g
     inkscape:label="Слой 1"
     inkscape:groupmode="layer"
     id="layer1">
    <g
       id="g42"
       transform="matrix(1.0026931,0,0,1.0430789,0.00460387,-1.5859003)">
      <path
         id="path7"
         style="fill:url(#linearGradient40);fill-rule:evenodd;stroke:none;stroke-width:0.366314;stroke-linecap:round;stroke-linejoin:bevel;stroke-dasharray:none;stroke-opacity:1;paint-order:stroke fill markers"
         d="M -0.0045915,1.520403 0.01681073,4.9868497 19.693359,9.3900802 c -0.0015,0.016921 -0.0022,0.033849 -0.002,0.050778 0.002,0.8149688 1.929157,1.4834348 4.304641,1.4834348 H 23.998 24 c 2.375484,0 4.306641,-0.668466 4.308641,-1.4834348 2e-4,-0.016929 -4.53e-4,-0.033858 -0.002,-0.050778 l 19.55491,-4.1516038 0.0049,-3.7180734 H 45.947897 L 26.992835,7.2336604 C 26.068876,7.6948594 25.201641,7.9268814 24,7.9269074 22.798359,7.9268819 22.189237,7.8236877 21.265242,7.3624886 L 2.2553717,1.5155996 Z"
         sodipodi:nodetypes="ccccscscccccccccc" />
      <path
         id="path6-1"
         style="fill:url(#linearGradient38);stroke:#0d055d;stroke-width:0.7;stroke-linecap:round;stroke-linejoin:bevel;stroke-dasharray:none;stroke-opacity:1;paint-order:fill markers stroke"
         d="M 19.152102,8.9773609 18.861494,45.580994 0.36941453,39.013805 0.34229116,4.7578433 Z m 9.685255,-0.011596 0.290608,36.6036331 18.383586,-6.697555 V 4.6941012 Z M 24,11.267849 c 2.67742,0 4.847898,-1.025652 4.847898,-2.2908569 v 3.691e-4 36.1133138 c 0,1.164588 -2.162162,2.102144 -4.847897,2.102144 H 24 c -2.685735,0 -4.847897,-0.937556 -4.847897,-2.102144 l -1e-6,-36.1133141 c 0,1.2648361 2.170478,2.2904881 4.847898,2.2904881 z"
         sodipodi:nodetypes="ccccccccccsccsssscs" />
      <text
         xml:space="preserve"
         style="font-style:normal;font-variant:normal;font-weight:300;font-stretch:normal;font-size:18.6667px;line-height:1.25;font-family:'URW Bookman';-inkscape-font-specification:'URW Bookman, Light';font-variant-ligatures:normal;font-variant-position:normal;font-variant-caps:normal;font-variant-numeric:normal;font-variant-east-asian:normal;white-space:pre;inline-size:42.4062;display:inline;fill:#ffffff;stroke:#000000;stroke-width:0.4;stroke-dasharray:none;stroke-opacity:1"
         id="text6"
         y="32.237419"
         x="3.4053655"
         transform="matrix(1.0582272,0,0,1.1248206,-1.4618637,-4.5827341)"><tspan
           x="3.4053655"
           y="32.237419"
           id="tspan1">TMT</tspan></text>
    </g>
  </g>
</svg>
